<?xml version="1.0" encoding="UTF-8"?>
<svg xmlns="http://www.w3.org/2000/svg" xmlns:xlink="http://www.w3.org/1999/xlink" width="32px" height="32px" viewBox="0 0 32 32" version="1.1">
<g id="surface1">
<path style=" stroke:none;fill-rule:evenodd;fill:rgb(5.098039%,74.117647%,54.509804%);fill-opacity:1;" d="M 16 32 C 24.835938 32 32 24.835938 32 16 C 32 7.164062 24.835938 0 16 0 C 7.164062 0 0 7.164062 0 16 C 0 24.835938 7.164062 32 16 32 Z M 16 32 "/>
<path style=" stroke:none;fill-rule:evenodd;fill:rgb(100%,100%,100%);fill-opacity:1;" d="M 13.074219 7.457031 C 13.074219 6.808594 13.597656 6.285156 14.246094 6.285156 C 18.632812 6.285156 22.1875 9.835938 22.1875 14.210938 C 22.1875 14.859375 21.664062 15.382812 21.015625 15.382812 C 20.371094 15.382812 19.84375 14.859375 19.84375 14.210938 C 19.84375 11.125 17.339844 8.625 14.246094 8.625 C 13.597656 8.625 13.074219 8.101562 13.074219 7.457031 Z M 13.074219 7.457031 "/>
<path style=" stroke:none;fill-rule:evenodd;fill:rgb(100%,100%,100%);fill-opacity:1;" d="M 24.542969 13.042969 C 25.191406 13.042969 25.714844 13.566406 25.714844 14.210938 C 25.714844 18.589844 22.160156 22.136719 17.773438 22.136719 C 17.125 22.136719 16.601562 21.613281 16.601562 20.96875 C 16.601562 20.320312 17.125 19.796875 17.773438 19.796875 C 20.863281 19.796875 23.371094 17.296875 23.371094 14.210938 C 23.371094 13.566406 23.894531 13.042969 24.542969 13.042969 Z M 24.542969 13.042969 "/>
<path style=" stroke:none;fill-rule:evenodd;fill:rgb(100%,100%,100%);fill-opacity:1;" d="M 18.945312 24.542969 C 18.945312 25.191406 18.417969 25.714844 17.773438 25.714844 C 13.386719 25.714844 9.828125 22.164062 9.828125 17.789062 C 9.828125 17.140625 10.355469 16.617188 11 16.617188 C 11.648438 16.617188 12.171875 17.140625 12.171875 17.789062 C 12.171875 20.875 14.679688 23.375 17.773438 23.375 C 18.417969 23.375 18.945312 23.898438 18.945312 24.542969 Z M 18.945312 24.542969 "/>
<path style=" stroke:none;fill-rule:evenodd;fill:rgb(100%,100%,100%);fill-opacity:1;" d="M 7.457031 18.957031 C 6.808594 18.957031 6.285156 18.433594 6.285156 17.789062 C 6.285156 13.410156 9.839844 9.863281 14.226562 9.863281 C 14.875 9.863281 15.398438 10.386719 15.398438 11.03125 C 15.398438 11.679688 14.875 12.203125 14.226562 12.203125 C 11.136719 12.203125 8.628906 14.703125 8.628906 17.789062 C 8.628906 18.433594 8.105469 18.957031 7.457031 18.957031 Z M 7.457031 18.957031 "/>
</g>
</svg>
