<?xml version="1.0" encoding="UTF-8"?>
<svg xmlns="http://www.w3.org/2000/svg" xmlns:xlink="http://www.w3.org/1999/xlink" width="32px" height="34px" viewBox="0 0 32 33" version="1.1">
<defs>
<linearGradient id="linear0" gradientUnits="userSpaceOnUse" x1="37.0692" y1="0" x2="37.0692" y2="79" gradientTransform="matrix(0.426667,0,0,0.417722,0,0)">
<stop offset="0" style="stop-color:rgb(38.823529%,39.215686%,100%);stop-opacity:1;"/>
<stop offset="1" style="stop-color:rgb(33.72549%,22.745098%,80%);stop-opacity:1;"/>
</linearGradient>
</defs>
<g id="surface1">
<path style=" stroke:none;fill-rule:nonzero;fill:url(#linear0);" d="M 31.503906 7.304688 C 31.015625 3.761719 27.859375 0.964844 24.121094 0.425781 C 23.488281 0.332031 21.097656 0 15.554688 0 L 15.515625 0 C 9.972656 0 8.78125 0.332031 8.152344 0.425781 C 4.515625 0.949219 1.191406 3.460938 0.386719 7.050781 C 0 8.816406 -0.0429688 10.773438 0.0273438 12.570312 C 0.132812 15.148438 0.152344 17.722656 0.390625 20.289062 C 0.554688 21.992188 0.84375 23.683594 1.253906 25.347656 C 2.019531 28.421875 5.121094 30.980469 8.160156 32.023438 C 11.414062 33.113281 14.910156 33.292969 18.261719 32.546875 C 18.632812 32.464844 18.996094 32.367188 19.355469 32.253906 C 20.171875 32 21.125 31.71875 21.828125 31.21875 C 21.835938 31.210938 21.84375 31.203125 21.851562 31.195312 C 21.855469 31.183594 21.859375 31.171875 21.859375 31.160156 L 21.859375 28.671875 C 21.859375 28.664062 21.855469 28.652344 21.851562 28.640625 C 21.847656 28.632812 21.839844 28.625 21.832031 28.617188 C 21.820312 28.609375 21.8125 28.605469 21.800781 28.601562 C 21.789062 28.601562 21.777344 28.601562 21.765625 28.601562 C 19.621094 29.105469 17.417969 29.355469 15.210938 29.351562 C 11.410156 29.351562 10.390625 27.585938 10.097656 26.851562 C 9.859375 26.21875 9.710938 25.554688 9.652344 24.882812 C 9.652344 24.871094 9.652344 24.859375 9.65625 24.847656 C 9.664062 24.839844 9.667969 24.828125 9.679688 24.820312 C 9.6875 24.816406 9.699219 24.808594 9.710938 24.808594 C 9.722656 24.804688 9.734375 24.804688 9.742188 24.808594 C 11.855469 25.308594 14.019531 25.558594 16.191406 25.558594 C 16.714844 25.558594 17.238281 25.558594 17.757812 25.542969 C 19.945312 25.484375 22.246094 25.375 24.398438 24.964844 C 24.449219 24.953125 24.503906 24.945312 24.550781 24.929688 C 27.941406 24.292969 31.167969 22.292969 31.496094 17.226562 C 31.507812 17.027344 31.539062 15.136719 31.539062 14.929688 C 31.539062 14.226562 31.769531 9.941406 31.503906 7.304688 Z M 31.503906 7.304688 "/>
<path style=" stroke:none;fill-rule:nonzero;fill:rgb(100%,100%,100%);fill-opacity:1;" d="M 26.132812 11.289062 L 26.132812 20.097656 L 22.566406 20.097656 L 22.566406 11.550781 C 22.566406 9.75 21.800781 8.832031 20.242188 8.832031 C 18.53125 8.832031 17.671875 9.917969 17.671875 12.0625 L 17.671875 16.742188 L 14.128906 16.742188 L 14.128906 12.0625 C 14.128906 9.917969 13.269531 8.832031 11.554688 8.832031 C 10.003906 8.832031 9.230469 9.75 9.230469 11.550781 L 9.230469 20.097656 L 5.667969 20.097656 L 5.667969 11.289062 C 5.667969 9.488281 6.136719 8.058594 7.074219 7 C 8.042969 5.941406 9.316406 5.398438 10.890625 5.398438 C 12.714844 5.398438 14.09375 6.085938 15.015625 7.457031 L 15.902344 8.917969 L 16.789062 7.457031 C 17.710938 6.085938 19.089844 5.398438 20.910156 5.398438 C 22.484375 5.398438 23.757812 5.941406 24.726562 7 C 25.664062 8.058594 26.132812 9.488281 26.132812 11.289062 Z M 26.132812 11.289062 "/>
</g>
</svg>
